<svg width="22" height="19" viewBox="0 0 22 19" fill="none" xmlns="http://www.w3.org/2000/svg">
<g id="download-cloud">
<path id="Vector" d="M7.36804 13.7304L11.0023 17.3646L14.6365 13.7304" stroke="white" stroke-width="2" stroke-linecap="round" stroke-linejoin="round"/>
<path id="Vector_2" d="M11.0023 9.18762V17.3647" stroke="white" stroke-width="2" stroke-linecap="round" stroke-linejoin="round"/>
<path id="Vector_3" d="M19.0703 14.7207C19.8602 14.1653 20.4525 13.3726 20.7614 12.4577C21.0702 11.5427 21.0795 10.5532 20.7878 9.63265C20.4962 8.71211 19.9188 7.90845 19.1394 7.3383C18.3601 6.76816 17.4193 6.46119 16.4537 6.46194H15.3089C15.0356 5.39699 14.5243 4.40791 13.8135 3.56916C13.1027 2.73041 12.2108 2.06384 11.2051 1.61964C10.1994 1.17544 9.10599 0.965183 8.00726 1.0047C6.90852 1.04421 5.83306 1.33246 4.86185 1.84776C3.89063 2.36305 3.04897 3.09196 2.40023 3.9796C1.75148 4.86725 1.31256 5.8905 1.1165 6.97232C0.920443 8.05415 0.972358 9.16635 1.26834 10.2252C1.56432 11.2841 2.09665 12.262 2.82526 13.0853" stroke="white" stroke-width="2" stroke-linecap="round" stroke-linejoin="round"/>
</g>
</svg>
